<?xml version="1.0" encoding="utf-8"?>
<!-- Generator: Adobe Illustrator 16.0.0, SVG Export Plug-In . SVG Version: 6.00 Build 0)  -->
<!DOCTYPE svg PUBLIC "-//W3C//DTD SVG 1.1//EN" "http://www.w3.org/Graphics/SVG/1.1/DTD/svg11.dtd">
<svg version="1.1" id="Layer_1" xmlns="http://www.w3.org/2000/svg" xmlns:xlink="http://www.w3.org/1999/xlink" x="0px" y="0px"
	 width="200px" height="70px" viewBox="0 0 200 70" enable-background="new 0 0 200 70" xml:space="preserve">
<g>
	<g>
		<path fill="#FFFFFF" d="M32.206,37.824c-1.682,0-3.049-0.449-4.062-1.334c-1.033-0.903-1.557-2.134-1.557-3.66
			c0-2.252,1.033-4.497,3.069-6.672c2.046-2.185,4.155-3.292,6.271-3.292c1.229,0,2.255,0.397,3.048,1.181
			c0.794,0.785,1.197,1.799,1.197,3.015c0,0.723-0.208,1.578-0.638,2.613c-0.523,1.264-0.925,1.757-1.436,1.757
			c-0.535,0-0.774-0.352-0.774-0.7c0-0.151,0.047-0.312,0.152-0.523c0.838-1.233,1.246-2.289,1.246-3.197
			c0-0.812-0.25-1.445-0.766-1.934c-0.523-0.496-1.201-0.737-2.072-0.737c-1.721,0-3.449,0.944-5.136,2.807
			c-1.7,1.877-2.562,3.806-2.562,5.732c0,0.968,0.318,1.75,0.971,2.389c0.657,0.643,1.456,0.956,2.442,0.956
			c2.378,0,4.603-1.188,6.611-3.533c2.029-2.368,3.058-5.001,3.058-7.827c0-2.534-1.172-4.36-3.583-5.579l-1.3,0.157
			c-0.416,0.052-0.84,0.078-1.258,0.078c-0.598,0-2.098,0-2.359-0.851c-0.382,0.729-0.761,1.484-1.136,2.266
			c-1.993,4.136-3.851,7.183-5.521,9.056c-1.634,1.821-3.978,3.498-6.967,4.984c-3.535,1.725-6.742,2.599-9.536,2.599
			c-2.324,0-4.293-0.546-5.853-1.624c-1.618-1.118-2.438-2.546-2.438-4.244c0-0.964,0.295-1.811,0.876-2.516
			c0.604-0.733,1.343-1.105,2.196-1.105c1.286,0,2.023,0.801,2.023,2.198c0,0.686-0.213,1.282-0.632,1.773
			C5.342,32.57,4.79,32.831,4.14,32.831c-0.484,0-0.878-0.119-1.173-0.353c0.195,0.895,0.769,1.655,1.74,2.31
			c1.266,0.854,2.899,1.288,4.852,1.288c3.5,0,6.722-1.317,9.576-3.915c1.252-1.139,2.356-2.345,3.282-3.587
			c0.939-1.26,3.126-4.516,6.5-9.675c1.657-2.494,3.672-5.059,5.99-7.627c2.07-2.293,3.871-4.023,5.361-5.151
			c-2.509-1.861-6.073-2.804-10.608-2.804c-6.857,0-12.906,2.514-17.978,7.473c-4.142,4.045-6.242,7.881-6.242,11.403
			c0,1.733,0.535,3.066,1.636,4.076c1.098,1.006,2.623,1.517,4.531,1.517c3.203,0,6.582-1.578,10.041-4.69
			c3.444-3.099,5.19-6.125,5.19-8.992c0-2.129-1.023-3.121-3.221-3.121c-2.334,0-4.901,1.342-7.629,3.988
			c-2.724,2.642-4.105,5.136-4.105,7.412c0,0.473,0.152,0.868,0.466,1.208c0.303,0.328,0.641,0.488,1.031,0.488
			c0.294,0.044,0.924,0.155,0.924,0.7c0,0.17-0.07,0.725-0.974,0.725c-0.96,0-1.775-0.432-2.421-1.283
			c-0.614-0.808-0.925-1.804-0.925-2.959c0-2.718,1.495-5.384,4.443-7.926c2.927-2.522,5.986-3.801,9.091-3.801
			c3.137,0,4.794,1.546,4.794,4.47c0,3.362-1.895,6.78-5.633,10.159c-3.723,3.366-7.465,5.073-11.122,5.073
			c-2.441,0-4.429-0.751-5.909-2.231c-1.48-1.48-2.231-3.477-2.231-5.934c0-4.857,2.753-9.332,8.183-13.301
			c5.381-3.933,11.416-5.927,17.936-5.927c4.792,0,8.941,1.07,12.339,3.182c3.02-1.83,5.991-2.757,8.835-2.757
			c2.355,0,4.284,0.72,5.731,2.141c1.45,1.423,2.185,3.316,2.185,5.625c0,0.899-0.12,1.894-0.357,2.956
			c-0.273,1.228-0.55,1.939-1.154,1.939c-0.441,0-0.75-0.308-0.75-0.75c0-0.106,0.023-0.225,0.076-0.382
			c0.433-1.124,0.649-2.332,0.649-3.613c0-1.952-0.583-3.536-1.731-4.707c-1.162-1.185-2.664-1.76-4.591-1.76
			c-2.449,0-5.009,0.766-7.618,2.277c2.069,1.726,3.117,3.746,3.117,6.013c0,3.538-2.123,5.821-6.315,6.803
			c3.298,1.619,4.967,4.229,4.967,7.779c0,3-1.288,5.655-3.828,7.891C38.567,36.698,35.579,37.824,32.206,37.824z M34.803,17.448
			c0.768,0,1.735,0.141,2.953,0.431c1.561-0.505,2.813-1.373,3.727-2.58c0.936-1.237,1.41-2.681,1.41-4.293
			c0-1.409-0.485-2.668-1.48-3.837c-2.811,2.269-5.522,5.78-8.088,10.466C33.798,17.448,34.441,17.448,34.803,17.448z"/>
		<path fill="#FFFFFF" d="M48.214,37.075c-0.922,0-1.705-0.334-2.326-0.993c-0.613-0.651-0.923-1.468-0.923-2.428
			c0-1.065,0.586-2.585,1.791-4.647l4.082-6.933l0.356,0.081c0.477,0.108,0.851,0.163,1.113,0.163c0.425,0,1.04-0.057,1.827-0.17
			l1.048-0.15l-6.218,10.219c-0.951,1.571-1.151,2.423-1.151,2.861c0,0.414,0.104,0.624,0.675,0.624
			c0.734,0,2.674-1.002,7.417-7.717c0.137-0.284,0.371-0.461,0.658-0.461c0.376,0,0.65,0.273,0.65,0.649v0.081l-0.025,0.076
			c-0.031,0.093-0.09,0.205-0.313,0.528l-1.082,1.485C52.532,34.872,50.052,37.075,48.214,37.075z M54.004,20.745
			c-1.032,0-1.624-0.592-1.624-1.624c0-0.686,0.311-1.339,0.923-1.942c0.61-0.601,1.274-0.905,1.974-0.905
			c0.985,0,1.574,0.588,1.574,1.574c0,0.714-0.295,1.381-0.877,1.983C55.388,20.438,54.725,20.745,54.004,20.745z"/>
		<path fill="#FFFFFF" d="M68.465,37.075c-0.898,0-1.66-0.352-2.265-1.046c-0.587-0.673-0.885-1.506-0.885-2.475
			c0-0.823,0.172-1.598,0.511-2.302c0.322-0.671,1.123-1.938,2.447-3.874c1.796-2.66,1.936-3.381,1.936-3.538
			c0-0.355-0.086-0.524-0.574-0.524c-1.53,0-4.646,2.304-10.8,13.278l-0.157,0.28l-0.32-0.026c-0.793-0.064-1.271-0.098-1.433-0.098
			c-0.559,0-1.092,0.032-1.584,0.096l-1.054,0.136l4.463-7.066c2.822-4.498,3.244-5.909,3.244-6.35c0-0.187-0.04-0.241-0.04-0.241
			c-0.003,0-0.006,0-0.01,0c-0.334,0-1.384,0.411-4.695,5.159c-0.241,0.349-0.435,0.51-0.666,0.554c-0.008,0-0.016,0-0.024,0
			c-0.411,0-0.66-0.227-0.714-0.561l-0.014-0.087l0.017-0.087c0.035-0.18,0.116-0.339,0.237-0.459l0.431-0.575
			c3.521-4.721,4.816-5.327,5.55-5.327c0.727,0,1.348,0.326,1.846,0.968c0.468,0.604,0.705,1.329,0.705,2.154
			c0,0.18-0.015,0.369-0.045,0.566c0.721-0.879,1.338-1.56,1.861-2.053c1.148-1.085,2.25-1.635,3.277-1.635
			c0.884,0,1.635,0.363,2.231,1.079c0.574,0.689,0.865,1.544,0.865,2.542c0,1.228-0.779,2.993-2.381,5.396
			c-2.042,3.063-2.263,3.97-2.263,4.217c0,0.407,0.118,0.524,0.525,0.524c0.732,0,2.65-1.002,7.264-7.711
			c0.141-0.29,0.375-0.466,0.663-0.466c0.376,0,0.649,0.273,0.649,0.649c0,0.298,0,0.708-3.741,5.172
			C71.42,35.855,69.766,37.075,68.465,37.075z"/>
		<path fill="#FFFFFF" d="M93.531,36.95c-2.178,0-3.99-0.507-5.385-1.506c-1.448-1.036-2.182-2.396-2.182-4.043
			c0-1.884,0.93-3.474,2.765-4.725c1.775-1.21,3.987-1.824,6.574-1.824c1.831,0,2.647,0.115,2.647,0.799v0.061l-0.015,0.06
			c-0.072,0.291-0.322,0.479-0.635,0.479c-0.209,0-0.52-0.017-0.929-0.052c-0.373-0.032-0.663-0.048-0.869-0.048
			c-2.086,0-3.82,0.547-5.154,1.626c-1.32,1.068-1.962,2.385-1.962,4.023c0,1.188,0.398,2.092,1.216,2.764
			c0.836,0.687,2.014,1.036,3.503,1.036c2.907,0,5.786-1.243,8.559-3.695c2.753-2.436,4.149-4.948,4.149-7.466
			c0-1.446-0.467-2.565-1.429-3.422c-0.965-0.86-2.296-1.296-3.958-1.296c-1.08,0-2.302,0.249-3.634,0.74
			c-2.391,3.048-3.353,3.442-3.924,3.442c-0.553,0-0.8-0.376-0.8-0.75c0-0.63,0.458-1.54,3.831-3.5
			c2.81-3.784,4.234-7.055,4.234-9.723c0-0.304-0.016-0.452-0.028-0.519c-0.048-0.12-0.072-0.256-0.072-0.405
			c0-0.493,0.321-0.824,0.8-0.824c0.375,0,0.824,0.23,0.824,1.324c0,0.07-0.002,0.143-0.006,0.219
			c0.833-0.743,1.811-1.118,2.924-1.118c0.422,0,1.394,0.14,4.95,1.35c0.854,0.28,1.507,0.423,1.935,0.423
			c0.385,0,0.717-0.138,1.014-0.423c0.29-0.279,0.432-0.589,0.432-0.95c0-0.042-0.009-0.137-0.069-0.304
			c-0.108-0.297-0.13-0.419-0.13-0.52c0-0.479,0.306-0.8,0.762-0.8c0.248,0,0.824,0.112,0.824,1.149
			c0,1.198-0.543,2.263-1.613,3.166c-1.045,0.882-2.258,1.329-3.605,1.329c-0.986,0-2.044-0.204-3.143-0.605
			c-1.549-0.542-2.678-0.818-3.35-0.818c-0.474,0-1.157,0.145-1.629,1.398c-0.76,2.042-1.708,3.953-2.825,5.699
			c0.952-0.287,1.915-0.432,2.877-0.432c2.357,0,4.354,0.683,5.937,2.029c1.605,1.367,2.42,3.104,2.42,5.163
			c0,2.97-1.653,5.665-4.913,8.009C101.237,35.78,97.564,36.95,93.531,36.95z"/>
	</g>
</g>
</svg>
