<?xml version="1.0" encoding="utf-8"?>
<!-- Generator: Adobe Illustrator 16.0.0, SVG Export Plug-In . SVG Version: 6.00 Build 0)  -->
<!DOCTYPE svg PUBLIC "-//W3C//DTD SVG 1.1//EN" "http://www.w3.org/Graphics/SVG/1.1/DTD/svg11.dtd">
<svg version="1.1" id="Layer_1" xmlns="http://www.w3.org/2000/svg" xmlns:xlink="http://www.w3.org/1999/xlink" x="0px" y="0px"
	 width="120.143px" height="41.153px" viewBox="0 0 120.143 41.153" enable-background="new 0 0 120.143 41.153"
	 xml:space="preserve">
<g>
	<g>
		<path fill="#FFFFFF" d="M33.622,39.133c-1.759,0-3.188-0.47-4.248-1.395c-1.081-0.945-1.628-2.233-1.628-3.829
			c0-2.354,1.081-4.703,3.21-6.977c2.14-2.286,4.345-3.443,6.558-3.443c1.286,0,2.359,0.416,3.188,1.235
			c0.83,0.821,1.251,1.881,1.251,3.153c0,0.756-0.217,1.65-0.667,2.732c-0.547,1.322-0.968,1.837-1.502,1.837
			c-0.56,0-0.809-0.367-0.809-0.731c0-0.158,0.049-0.326,0.159-0.547c0.876-1.289,1.303-2.395,1.303-3.345
			c0-0.848-0.261-1.512-0.801-2.021c-0.547-0.519-1.256-0.771-2.167-0.771c-1.799,0-3.606,0.987-5.371,2.936
			c-1.778,1.963-2.68,3.98-2.68,5.994c0,1.013,0.333,1.83,1.016,2.499c0.687,0.673,1.522,0.999,2.554,0.999
			c2.487,0,4.813-1.241,6.914-3.695c2.122-2.475,3.198-5.229,3.198-8.186c0-2.649-1.226-4.56-3.748-5.833l-1.36,0.164
			c-0.435,0.054-0.878,0.082-1.315,0.082c-0.625,0-2.194,0-2.467-0.891c-0.4,0.762-0.796,1.552-1.188,2.369
			c-2.083,4.326-4.027,7.513-5.774,9.472c-1.708,1.904-4.161,3.658-7.286,5.213c-3.697,1.804-7.051,2.718-9.973,2.718
			c-2.43,0-4.489-0.57-6.121-1.698c-1.692-1.169-2.55-2.663-2.55-4.438c0-1.008,0.308-1.894,0.916-2.631
			c0.632-0.768,1.405-1.156,2.297-1.156c1.344,0,2.116,0.838,2.116,2.3c0,0.717-0.223,1.341-0.662,1.853
			c-0.458,0.538-1.035,0.811-1.715,0.811c-0.506,0-0.918-0.125-1.227-0.369c0.204,0.936,0.804,1.73,1.82,2.416
			c1.324,0.893,3.032,1.347,5.075,1.347c3.66,0,7.03-1.378,10.014-4.095c1.31-1.192,2.464-2.452,3.433-3.751
			c0.982-1.317,3.27-4.723,6.798-10.119c1.733-2.609,3.84-5.291,6.265-7.976c2.165-2.398,4.048-4.208,5.606-5.387
			c-2.624-1.947-6.352-2.933-11.094-2.933c-7.171,0-13.498,2.63-18.802,7.816c-4.332,4.23-6.528,8.242-6.528,11.926
			c0,1.812,0.56,3.205,1.711,4.262c1.148,1.053,2.743,1.587,4.738,1.587c3.35,0,6.884-1.65,10.501-4.905
			c3.602-3.24,5.428-6.406,5.428-9.404c0-2.227-1.069-3.264-3.368-3.264c-2.441,0-5.126,1.404-7.979,4.171
			c-2.849,2.763-4.293,5.371-4.293,7.751c0,0.495,0.16,0.908,0.488,1.264c0.316,0.343,0.67,0.511,1.078,0.511
			c0.308,0.046,0.967,0.162,0.967,0.731c0,0.178-0.074,0.759-1.019,0.759c-1.004,0-1.856-0.452-2.532-1.342
			c-0.642-0.846-0.968-1.887-0.968-3.095c0-2.842,1.564-5.631,4.647-8.289c3.061-2.638,6.26-3.975,9.508-3.975
			c3.28,0,5.014,1.617,5.014,4.674c0,3.517-1.982,7.092-5.891,10.625c-3.894,3.52-7.807,5.305-11.631,5.305
			c-2.553,0-4.633-0.784-6.18-2.333c-1.548-1.549-2.333-3.636-2.333-6.205c0-5.08,2.879-9.76,8.558-13.911
			C17.699,3.589,24.01,1.504,30.83,1.504c5.012,0,9.351,1.119,12.904,3.328c3.158-1.914,6.266-2.883,9.24-2.883
			c2.462,0,4.48,0.753,5.994,2.239c1.516,1.488,2.285,3.468,2.285,5.883c0,0.94-0.126,1.981-0.373,3.091
			c-0.286,1.284-0.576,2.028-1.208,2.028c-0.461,0-0.784-0.322-0.784-0.784c0-0.111,0.025-0.235,0.08-0.4
			c0.452-1.175,0.679-2.439,0.679-3.779c0-2.041-0.61-3.698-1.811-4.922c-1.215-1.239-2.786-1.841-4.802-1.841
			c-2.562,0-5.239,0.801-7.967,2.382c2.164,1.805,3.261,3.918,3.261,6.288c0,3.701-2.221,6.088-6.605,7.115
			c3.449,1.693,5.194,4.423,5.194,8.136c0,3.138-1.347,5.914-4.003,8.252C40.274,37.956,37.149,39.133,33.622,39.133z
			 M36.338,17.824c0.803,0,1.814,0.147,3.088,0.45c1.632-0.528,2.941-1.436,3.897-2.698c0.979-1.293,1.475-2.804,1.475-4.49
			c0-1.473-0.507-2.79-1.547-4.013c-2.94,2.374-5.775,6.045-8.459,10.946C35.287,17.824,35.959,17.824,36.338,17.824z"/>
		<path fill="#FFFFFF" d="M50.363,38.35c-0.964,0-1.784-0.35-2.432-1.039c-0.641-0.68-0.966-1.535-0.966-2.539
			c0-1.114,0.613-2.705,1.873-4.859l4.269-7.251l0.372,0.084c0.5,0.113,0.891,0.172,1.164,0.172c0.445,0,1.089-0.062,1.911-0.178
			l1.096-0.158l-6.503,10.688c-0.994,1.643-1.204,2.535-1.204,2.993c0,0.433,0.109,0.652,0.707,0.652
			c0.768,0,2.796-1.049,7.756-8.072c0.144-0.296,0.388-0.481,0.688-0.481c0.394,0,0.681,0.285,0.681,0.679v0.084l-0.027,0.08
			c-0.032,0.097-0.094,0.215-0.326,0.552l-1.133,1.554C54.879,36.046,52.285,38.35,50.363,38.35z M56.419,21.272
			c-1.079,0-1.698-0.621-1.698-1.699c0-0.717,0.325-1.4,0.965-2.031c0.639-0.629,1.333-0.948,2.065-0.948
			c1.029,0,1.646,0.615,1.646,1.646c0,0.748-0.308,1.444-0.917,2.075C57.867,20.95,57.172,21.272,56.419,21.272z"/>
		<path fill="#FFFFFF" d="M71.542,38.35c-0.939,0-1.735-0.369-2.368-1.094c-0.614-0.705-0.926-1.575-0.926-2.588
			c0-0.862,0.18-1.672,0.534-2.408c0.338-0.702,1.175-2.026,2.56-4.052c1.878-2.782,2.024-3.536,2.024-3.7
			c0-0.372-0.09-0.548-0.601-0.548c-1.6,0-4.859,2.41-11.295,13.886l-0.164,0.293l-0.335-0.027
			c-0.829-0.066-1.328-0.102-1.498-0.102c-0.585,0-1.143,0.033-1.657,0.1l-1.102,0.144l4.667-7.391
			c2.952-4.704,3.393-6.18,3.393-6.641c0-0.196-0.042-0.253-0.042-0.253c-0.003,0-0.006,0-0.011,0c-0.35,0-1.445,0.431-4.909,5.396
			c-0.252,0.364-0.455,0.532-0.697,0.578c-0.008,0-0.017,0-0.024,0c-0.43,0-0.69-0.237-0.746-0.586l-0.016-0.09l0.019-0.092
			c0.035-0.189,0.12-0.355,0.247-0.481l0.451-0.6c3.683-4.938,5.036-5.572,5.805-5.572c0.76,0,1.41,0.341,1.931,1.013
			c0.488,0.632,0.737,1.39,0.737,2.253c0,0.188-0.018,0.386-0.047,0.592c0.753-0.919,1.398-1.632,1.946-2.147
			c1.2-1.135,2.353-1.71,3.427-1.71c0.924,0,1.711,0.379,2.333,1.13c0.601,0.719,0.905,1.613,0.905,2.656
			c0,1.285-0.815,3.132-2.491,5.645c-2.136,3.203-2.366,4.152-2.366,4.41c0,0.426,0.122,0.549,0.549,0.549
			c0.766,0,2.771-1.049,7.597-8.065c0.148-0.303,0.393-0.486,0.694-0.486c0.393,0,0.679,0.284,0.679,0.678
			c0,0.312,0,0.741-3.914,5.409C74.632,37.074,72.902,38.35,71.542,38.35z"/>
		<path fill="#FFFFFF" d="M97.758,38.219c-2.277,0-4.174-0.529-5.632-1.576c-1.515-1.083-2.283-2.506-2.283-4.228
			c0-1.97,0.974-3.634,2.892-4.941c1.856-1.266,4.171-1.908,6.875-1.908c1.916,0,2.771,0.121,2.771,0.835v0.065l-0.017,0.062
			c-0.075,0.305-0.337,0.502-0.664,0.502c-0.219,0-0.545-0.017-0.972-0.054c-0.391-0.034-0.693-0.051-0.909-0.051
			c-2.182,0-3.995,0.572-5.39,1.701c-1.381,1.117-2.053,2.494-2.053,4.206c0,1.243,0.417,2.189,1.271,2.892
			c0.875,0.719,2.107,1.082,3.664,1.082c3.04,0,6.051-1.299,8.951-3.864c2.88-2.547,4.339-5.174,4.339-7.807
			c0-1.513-0.488-2.684-1.494-3.579c-1.009-0.9-2.4-1.356-4.14-1.356c-1.13,0-2.407,0.262-3.801,0.774
			c-2.5,3.188-3.506,3.6-4.103,3.6c-0.58,0-0.837-0.393-0.837-0.784c0-0.658,0.478-1.609,4.006-3.661
			c2.939-3.957,4.428-7.377,4.428-10.167c0-0.318-0.016-0.473-0.027-0.543c-0.053-0.125-0.076-0.268-0.076-0.424
			c0-0.516,0.335-0.862,0.836-0.862c0.393,0,0.862,0.241,0.862,1.385c0,0.074-0.003,0.149-0.007,0.229
			c0.872-0.777,1.895-1.169,3.059-1.169c0.441,0,1.458,0.146,5.178,1.412c0.892,0.293,1.575,0.442,2.022,0.442
			c0.403,0,0.75-0.144,1.062-0.442c0.302-0.292,0.45-0.616,0.45-0.994c0-0.044-0.01-0.143-0.071-0.317
			c-0.114-0.311-0.136-0.438-0.136-0.544c0-0.5,0.32-0.836,0.796-0.836c0.26,0,0.862,0.117,0.862,1.202
			c0,1.253-0.567,2.367-1.688,3.312c-1.092,0.922-2.361,1.39-3.77,1.39c-1.031,0-2.138-0.213-3.287-0.633
			c-1.62-0.567-2.801-0.855-3.503-0.855c-0.497,0-1.211,0.152-1.704,1.462c-0.794,2.135-1.786,4.134-2.954,5.96
			c0.995-0.3,2.002-0.451,3.008-0.451c2.465,0,4.555,0.714,6.209,2.122c1.679,1.43,2.531,3.246,2.531,5.399
			c0,3.107-1.729,5.925-5.138,8.377C105.815,36.996,101.976,38.219,97.758,38.219z"/>
	</g>
</g>
</svg>
